<svg width="30" height="29" viewBox="0 0 30 29" fill="none" xmlns="http://www.w3.org/2000/svg">
<path d="M13.2425 0.968536C14.0198 -0.323104 15.8924 -0.323104 16.6697 0.968536L20.2795 6.96675C20.5588 7.43077 21.0143 7.76171 21.5419 7.8839L28.362 9.46346C29.8306 9.8036 30.4093 11.5845 29.4211 12.723L24.8319 18.0096C24.4769 18.4186 24.3029 18.954 24.3497 19.4936L24.955 26.468C25.0854 27.9699 23.5704 29.0706 22.1823 28.4825L15.7363 25.7516C15.2376 25.5404 14.6746 25.5404 14.1759 25.7516L7.7299 28.4825C6.34183 29.0706 4.82687 27.9699 4.95721 26.468L5.5625 19.4936C5.60933 18.954 5.43534 18.4186 5.08032 18.0096L0.491169 12.723C-0.497049 11.5845 0.081614 9.8036 1.55024 9.46346L8.37036 7.8839C8.89797 7.76171 9.35347 7.43077 9.63272 6.96675L13.2425 0.968536Z" fill="#73A8EE"/>
</svg>
